# xmcd
# 
# Track frame offsets:
#     150
#     13845
#     32948
#     50573
# 
# Disc length: 954
# 
# Revision: 0
# Processed by: cddbd v1.5.2PL0 Copyright (c) Steve Scherf et al.
# Submitted via: BonkEnc v1.0.8
# 
DISCID=3003b804
DTITLE=Laurence Amery - Narrow Road
DYEAR=2009
DGENRE=
TTITLE0=People Like Me
TTITLE1=Narrow Road
TTITLE2=Hilversum
TTITLE3=Mathematical Pull Of Temptation
EXTD=The second collection from the London Based songwriter and friends
EXTT0=
EXTT1=
EXTT2=
EXTT3=
PLAYORDER=
